#!OML:ASF H:\ManfredETheater\Project 1\Capture day 1\Session 1\subject.ASF
:FULLY-SPECIFIED
:DEGREES
198
root 2.75307 11.6243 -28.96 187.332 -55.136 -169.109
lowerback 43.472 -1.7822 -0.386696
upperback 8.93707 -4.0491 2.88386
thorax -10.2229 -2.70291 5.23827
lowerneck -9.68122 -10.291 -10.8866
upperneck -5.62571 -13.6362 25.4347
head 2.7381 -6.89405 8.70663
rclavicle 1.06549e-013 -7.15625e-015
rhumerus 5.48452 -6.814 -53.7971
rradius 75.5807
rwrist -8.74981
rhand -27.1349 -5.1229
rfingers 7.12502
rthumb -0.550419 -35.1019
lclavicle 1.06549e-013 -7.15625e-015
lhumerus 1.00262 1.02666 73.4759
lradius 20.5687
lwrist -33.3363
lhand -24.039 0.462899
lfingers 7.12502
lthumb 2.43965 30.4287
rfemur -105.503 -11.6502 38.7431
rtibia 96.4261
rfoot -5.96928 -9.066
rtoes 0.872898
lfemur -63.3005 21.3098 -37.4058
ltibia 126.715
lfoot -26.5358 -6.93456
ltoes -2.11387
199
root 2.7377 11.8137 -29.1026 188.757 -54.7653 -170.536
lowerback 43.075 -1.66937 -0.499952
upperback 8.76942 -3.91607 2.80398
thorax -10.3089 -2.61312 5.14402
lowerneck -9.7261 -10.3844 -11.0427
upperneck -5.87338 -13.6786 25.1994
head 2.66939 -6.91848 8.65317
rclavicle 1.1609e-013 -1.04958e-013
rhumerus 4.97411 -6.138 -54.5158
rradius 75.0566
rwrist -8.12379
rhand -27.2089 -5.06437
rfingers 7.12502
rthumb -0.621871 -35.0432
lclavicle 1.1609e-013 -1.04958e-013
lhumerus 0.524085 0.596506 74.1227
lradius 21.3834
lwrist -32.1572
lhand -25.4723 0.34959
lfingers 7.12502
lthumb 1.05539 30.3267
rfemur -104.455 -11.814 38.8834
rtibia 95.6019
rfoot -6.84183 -8.6137
rtoes -0.139107
lfemur -62.2885 20.4763 -37.8311
ltibia 124.968
lfoot -26.7876 -4.77693
ltoes -2.94822
200
root 2.71992 12.0077 -29.243 190.117 -54.3778 -171.885
lowerback 42.6699 -1.58602 -0.618035
upperback 8.59304 -3.81796 2.7299
thorax -10.3973 -2.5385 5.07406
lowerneck -9.74565 -10.4698 -11.1982
upperneck -6.15219 -13.7116 24.9699
head 2.58615 -6.94304 8.60506
rclavicle 1.36764e-013 -4.77083e-014
rhumerus 4.46117 -5.39422 -55.2861
rradius 74.5712
rwrist -7.55428
rhand -27.2576 -4.97276
rfingers 7.12502
rthumb -0.668892 -34.9515
lclavicle 1.36764e-013 -4.77083e-014
lhumerus -0.187073 0.179815 74.7112
lradius 22.4304
lwrist -31.0709
lhand -27.2132 0.250539
lfingers 7.12502
lthumb -0.625996 30.2294
rfemur -103.363 -12.0082 39.014
rtibia 94.7067
rfoot -7.65562 -8.13697
rtoes -1.43439
lfemur -61.2477 19.677 -38.2067
ltibia 123.145
lfoot -26.9372 -2.77224
ltoes -3.64585
201
root 2.69966 12.2067 -29.3809 191.391 -53.971 -173.137
lowerback 42.2692 -1.53323 -0.728402
upperback 8.4061 -3.75124 2.66377
thorax -10.4944 -2.47769 5.02328
lowerneck -9.74023 -10.547 -11.3534
upperneck -6.47351 -13.7347 24.7554
head 2.48615 -6.96838 8.5657
rclavicle -1.11319e-014 1.01778e-013
rhumerus 3.93621 -4.60078 -56.1145
rradius 74.1412
rwrist -7.06586
rhand -27.2703 -4.88779
rfingers 7.12502
rthumb -0.681197 -34.8664
lclavicle -1.11319e-014 1.01778e-013
lhumerus -1.11091 -0.222188 75.2506
lradius 23.7384
lwrist -29.9968
lhand -28.8652 0.266416
lfingers 7.12502
lthumb -2.22151 30.2346
rfemur -102.219 -12.2249 39.1417
rtibia 93.7343
rfoot -8.4491 -7.64297
rtoes -2.57347
lfemur -60.1934 18.9138 -38.5132
ltibia 121.256
lfoot -26.9554 -0.943288
ltoes -4.26984
